<svg width="596" height="286" viewBox="0 0 596 286" fill="none" xmlns="http://www.w3.org/2000/svg">
<g clip-path="url(#clip0_3665_99830)">
<rect width="286" height="286" rx="8" fill="white"/>
<rect y="278" width="286" height="8" fill="#4FB262"/>
<path fill-rule="evenodd" clip-rule="evenodd" d="M243.25 32C243.25 26.0858 248.086 21.25 254 21.25C259.914 21.25 264.75 26.0858 264.75 32C264.75 37.9142 259.914 42.75 254 42.75C248.086 42.75 243.25 37.9142 243.25 32ZM258.78 29.7008C259.073 29.4082 259.073 28.9333 258.781 28.6402C258.488 28.347 258.013 28.3466 257.72 28.6392L252.58 33.7698L250.28 31.4697C249.987 31.1768 249.513 31.1768 249.22 31.4697C248.927 31.7626 248.927 32.2374 249.22 32.5303L252.05 35.3603C252.342 35.6531 252.817 35.6533 253.11 35.3608L258.78 29.7008Z" fill="#68BE79"/>
</g>
<rect x="0.5" y="0.5" width="285" height="285" rx="7.5" stroke="#D0D6DD"/>
<g clip-path="url(#clip1_3665_99830)">
<rect x="310" width="286" height="286" rx="8" fill="white"/>
<rect x="310" y="278" width="286" height="8" fill="#C83E39"/>
<path fill-rule="evenodd" clip-rule="evenodd" d="M553.25 32C553.25 26.0858 558.086 21.25 564 21.25C569.914 21.25 574.75 26.0858 574.75 32C574.75 37.9142 569.914 42.75 564 42.75C558.086 42.75 553.25 37.9142 553.25 32ZM567.36 28.6397C567.653 28.9326 567.653 29.4075 567.36 29.7003L565.061 32L567.36 34.2997C567.653 34.5926 567.653 35.0674 567.36 35.3603C567.067 35.6532 566.592 35.6532 566.3 35.3603L564 33.0607L561.7 35.3603C561.407 35.6532 560.932 35.6532 560.64 35.3603C560.347 35.0674 560.347 34.5926 560.64 34.2997L562.939 32L560.64 29.7003C560.347 29.4075 560.347 28.9326 560.64 28.6397C560.932 28.3468 561.407 28.3468 561.7 28.6397L564 30.9394L566.3 28.6397C566.592 28.3468 567.067 28.3468 567.36 28.6397Z" fill="#DA473F"/>
</g>
<rect x="310.5" y="0.5" width="285" height="285" rx="7.5" stroke="#D0D6DD"/>
<rect x="70" y="112.5" width="165" height="37" rx="6.5" fill="#4B61DD"/>
<rect x="70" y="112.5" width="165" height="37" rx="6.5" stroke="#4B61DD"/>
<path d="M96.6462 129.254H94.7868C94.7338 128.949 94.636 128.679 94.4935 128.443C94.351 128.205 94.1737 128.002 93.9616 127.837C93.7494 127.671 93.5075 127.547 93.2357 127.464C92.9672 127.378 92.6772 127.335 92.3657 127.335C91.8122 127.335 91.3216 127.474 90.8941 127.752C90.4665 128.027 90.1318 128.432 89.8898 128.965C89.6479 129.496 89.5269 130.143 89.5269 130.909C89.5269 131.688 89.6479 132.344 89.8898 132.878C90.1351 133.408 90.4698 133.809 90.8941 134.081C91.3216 134.349 91.8105 134.484 92.3607 134.484C92.6656 134.484 92.9507 134.444 93.2158 134.364C93.4843 134.281 93.7246 134.161 93.9367 134.001C94.1521 133.842 94.3328 133.647 94.4786 133.415C94.6278 133.183 94.7305 132.918 94.7868 132.619L96.6462 132.629C96.5766 133.113 96.4258 133.567 96.1938 133.991C95.9651 134.416 95.6652 134.79 95.2939 135.115C94.9227 135.437 94.4885 135.688 93.9914 135.871C93.4942 136.05 92.9424 136.139 92.3358 136.139C91.441 136.139 90.6422 135.932 89.9395 135.518C89.2369 135.103 88.6834 134.505 88.279 133.723C87.8747 132.941 87.6725 132.003 87.6725 130.909C87.6725 129.812 87.8763 128.874 88.284 128.095C88.6917 127.313 89.2468 126.715 89.9495 126.3C90.6521 125.886 91.4476 125.679 92.3358 125.679C92.9026 125.679 93.4296 125.759 93.9168 125.918C94.404 126.077 94.8382 126.31 95.2194 126.619C95.6005 126.924 95.9137 127.298 96.159 127.742C96.4076 128.183 96.57 128.687 96.6462 129.254ZM98.2558 136V128.364H100.001V129.636H100.08C100.22 129.196 100.458 128.856 100.796 128.617C101.138 128.375 101.527 128.254 101.965 128.254C102.064 128.254 102.175 128.259 102.298 128.269C102.424 128.276 102.528 128.287 102.611 128.304V129.96C102.535 129.933 102.414 129.91 102.248 129.89C102.086 129.867 101.928 129.855 101.776 129.855C101.448 129.855 101.153 129.926 100.891 130.069C100.632 130.208 100.428 130.402 100.279 130.651C100.13 130.899 100.055 131.186 100.055 131.511V136H98.2558ZM106.873 136.149C106.107 136.149 105.446 135.99 104.889 135.672C104.336 135.35 103.91 134.896 103.611 134.31C103.313 133.72 103.164 133.025 103.164 132.227C103.164 131.441 103.313 130.752 103.611 130.158C103.913 129.562 104.334 129.098 104.874 128.766C105.414 128.432 106.049 128.264 106.778 128.264C107.249 128.264 107.693 128.34 108.111 128.493C108.532 128.642 108.903 128.874 109.224 129.189C109.549 129.504 109.804 129.905 109.99 130.392C110.176 130.876 110.268 131.453 110.268 132.122V132.674H104.009V131.461H108.543C108.54 131.116 108.465 130.81 108.32 130.541C108.174 130.269 107.97 130.056 107.708 129.9C107.449 129.744 107.148 129.666 106.803 129.666C106.435 129.666 106.112 129.756 105.834 129.935C105.555 130.11 105.338 130.342 105.182 130.631C105.03 130.916 104.952 131.229 104.949 131.57V132.629C104.949 133.073 105.03 133.455 105.192 133.773C105.355 134.088 105.582 134.33 105.873 134.499C106.165 134.664 106.507 134.747 106.898 134.747C107.159 134.747 107.396 134.711 107.609 134.638C107.821 134.562 108.005 134.451 108.16 134.305C108.316 134.159 108.434 133.978 108.513 133.763L110.194 133.952C110.088 134.396 109.886 134.784 109.587 135.115C109.292 135.443 108.914 135.698 108.454 135.881C107.993 136.06 107.466 136.149 106.873 136.149ZM113.988 136.154C113.504 136.154 113.069 136.068 112.681 135.896C112.296 135.72 111.991 135.461 111.766 135.12C111.544 134.779 111.433 134.358 111.433 133.857C111.433 133.426 111.513 133.07 111.672 132.788C111.831 132.507 112.048 132.281 112.323 132.112C112.598 131.943 112.908 131.816 113.253 131.729C113.601 131.64 113.96 131.575 114.331 131.536C114.779 131.489 115.142 131.448 115.42 131.411C115.699 131.371 115.901 131.312 116.027 131.232C116.156 131.149 116.221 131.022 116.221 130.849V130.82C116.221 130.445 116.11 130.155 115.888 129.95C115.665 129.744 115.346 129.641 114.928 129.641C114.487 129.641 114.138 129.737 113.879 129.93C113.624 130.122 113.451 130.349 113.362 130.611L111.682 130.372C111.814 129.908 112.033 129.52 112.338 129.209C112.643 128.894 113.016 128.659 113.456 128.503C113.897 128.344 114.384 128.264 114.918 128.264C115.286 128.264 115.652 128.307 116.017 128.393C116.381 128.48 116.714 128.622 117.016 128.821C117.318 129.017 117.56 129.283 117.742 129.621C117.928 129.96 118.02 130.382 118.02 130.889V136H116.29V134.951H116.231C116.121 135.163 115.967 135.362 115.768 135.548C115.573 135.73 115.326 135.877 115.027 135.99C114.732 136.099 114.386 136.154 113.988 136.154ZM114.456 134.832C114.817 134.832 115.13 134.76 115.395 134.618C115.66 134.472 115.864 134.28 116.007 134.041C116.153 133.803 116.226 133.542 116.226 133.261V132.361C116.169 132.407 116.073 132.45 115.937 132.49C115.805 132.53 115.656 132.565 115.49 132.594C115.324 132.624 115.16 132.651 114.998 132.674C114.835 132.697 114.694 132.717 114.575 132.734C114.307 132.77 114.066 132.83 113.854 132.913C113.642 132.996 113.475 133.112 113.352 133.261C113.229 133.406 113.168 133.595 113.168 133.827C113.168 134.159 113.289 134.409 113.531 134.578C113.773 134.747 114.081 134.832 114.456 134.832ZM123.643 128.364V129.756H119.253V128.364H123.643ZM120.337 126.534H122.137V133.703C122.137 133.945 122.173 134.131 122.246 134.26C122.322 134.386 122.422 134.472 122.544 134.518C122.667 134.565 122.803 134.588 122.952 134.588C123.065 134.588 123.168 134.58 123.26 134.563C123.357 134.547 123.429 134.532 123.479 134.518L123.782 135.925C123.686 135.959 123.549 135.995 123.37 136.035C123.194 136.075 122.979 136.098 122.723 136.104C122.273 136.118 121.867 136.05 121.505 135.901C121.144 135.748 120.857 135.513 120.645 135.195C120.437 134.876 120.334 134.479 120.337 134.001V126.534ZM128.447 136.149C127.681 136.149 127.02 135.99 126.463 135.672C125.91 135.35 125.484 134.896 125.186 134.31C124.887 133.72 124.738 133.025 124.738 132.227C124.738 131.441 124.887 130.752 125.186 130.158C125.487 129.562 125.908 129.098 126.448 128.766C126.989 128.432 127.623 128.264 128.353 128.264C128.823 128.264 129.267 128.34 129.685 128.493C130.106 128.642 130.477 128.874 130.799 129.189C131.123 129.504 131.379 129.905 131.564 130.392C131.75 130.876 131.843 131.453 131.843 132.122V132.674H125.583V131.461H130.117C130.114 131.116 130.04 130.81 129.894 130.541C129.748 130.269 129.544 130.056 129.282 129.9C129.024 129.744 128.722 129.666 128.377 129.666C128.009 129.666 127.686 129.756 127.408 129.935C127.13 130.11 126.912 130.342 126.757 130.631C126.604 130.916 126.526 131.229 126.523 131.57V132.629C126.523 133.073 126.604 133.455 126.767 133.773C126.929 134.088 127.156 134.33 127.448 134.499C127.739 134.664 128.081 134.747 128.472 134.747C128.734 134.747 128.971 134.711 129.183 134.638C129.395 134.562 129.579 134.451 129.735 134.305C129.89 134.159 130.008 133.978 130.088 133.763L131.768 133.952C131.662 134.396 131.46 134.784 131.161 135.115C130.867 135.443 130.489 135.698 130.028 135.881C129.567 136.06 129.04 136.149 128.447 136.149ZM138.762 125.818V136H136.917V125.818H138.762ZM144.209 136H140.759V125.818H144.279C145.29 125.818 146.158 126.022 146.884 126.43C147.613 126.834 148.173 127.416 148.565 128.175C148.956 128.934 149.151 129.842 149.151 130.899C149.151 131.96 148.954 132.871 148.56 133.634C148.168 134.396 147.603 134.981 146.864 135.388C146.128 135.796 145.244 136 144.209 136ZM142.604 134.404H144.12C144.829 134.404 145.421 134.275 145.895 134.016C146.369 133.754 146.725 133.365 146.964 132.848C147.202 132.328 147.322 131.678 147.322 130.899C147.322 130.12 147.202 129.474 146.964 128.96C146.725 128.443 146.372 128.057 145.905 127.802C145.441 127.543 144.864 127.414 144.175 127.414H142.604V134.404ZM154.376 136V125.818H156.176V129.626H156.251C156.343 129.441 156.474 129.244 156.643 129.035C156.812 128.823 157.041 128.642 157.329 128.493C157.618 128.34 157.986 128.264 158.433 128.264C159.023 128.264 159.555 128.415 160.029 128.717C160.506 129.015 160.884 129.457 161.163 130.044C161.444 130.627 161.585 131.343 161.585 132.192C161.585 133.03 161.448 133.743 161.172 134.33C160.897 134.916 160.523 135.364 160.049 135.672C159.575 135.98 159.038 136.134 158.438 136.134C158.001 136.134 157.638 136.061 157.349 135.915C157.061 135.77 156.829 135.594 156.653 135.388C156.481 135.18 156.347 134.982 156.251 134.797H156.146V136H154.376ZM156.141 132.182C156.141 132.676 156.211 133.108 156.35 133.479C156.493 133.851 156.696 134.141 156.962 134.349C157.23 134.555 157.555 134.658 157.936 134.658C158.334 134.658 158.667 134.552 158.935 134.339C159.204 134.124 159.406 133.831 159.542 133.46C159.681 133.085 159.751 132.659 159.751 132.182C159.751 131.708 159.683 131.287 159.547 130.919C159.411 130.551 159.209 130.263 158.94 130.054C158.672 129.845 158.337 129.741 157.936 129.741C157.552 129.741 157.225 129.842 156.957 130.044C156.688 130.246 156.484 130.53 156.345 130.894C156.209 131.259 156.141 131.688 156.141 132.182ZM163.115 136V128.364H164.915V136H163.115ZM164.02 127.28C163.735 127.28 163.49 127.185 163.284 126.996C163.079 126.804 162.976 126.574 162.976 126.305C162.976 126.034 163.079 125.803 163.284 125.614C163.49 125.422 163.735 125.326 164.02 125.326C164.308 125.326 164.554 125.422 164.756 125.614C164.961 125.803 165.064 126.034 165.064 126.305C165.064 126.574 164.961 126.804 164.756 126.996C164.554 127.185 164.308 127.28 164.02 127.28ZM168.565 125.818V136H166.766V125.818H168.565ZM172.216 125.818V136H170.416V125.818H172.216ZM174.066 136V128.364H175.866V136H174.066ZM174.971 127.28C174.686 127.28 174.441 127.185 174.235 126.996C174.03 126.804 173.927 126.574 173.927 126.305C173.927 126.034 174.03 125.803 174.235 125.614C174.441 125.422 174.686 125.326 174.971 125.326C175.259 125.326 175.505 125.422 175.707 125.614C175.912 125.803 176.015 126.034 176.015 126.305C176.015 126.574 175.912 126.804 175.707 126.996C175.505 127.185 175.259 127.28 174.971 127.28ZM179.516 131.526V136H177.717V128.364H179.437V129.661H179.526C179.702 129.234 179.982 128.894 180.367 128.642C180.754 128.39 181.233 128.264 181.803 128.264C182.33 128.264 182.789 128.377 183.18 128.602C183.575 128.828 183.88 129.154 184.095 129.582C184.314 130.009 184.422 130.528 184.418 131.138V136H182.619V131.416C182.619 130.906 182.486 130.506 182.221 130.218C181.959 129.93 181.596 129.786 181.132 129.786C180.817 129.786 180.537 129.855 180.292 129.994C180.05 130.13 179.859 130.327 179.72 130.586C179.584 130.844 179.516 131.158 179.516 131.526ZM189.569 139.023C188.923 139.023 188.368 138.935 187.903 138.759C187.439 138.587 187.067 138.355 186.785 138.063C186.503 137.772 186.308 137.448 186.198 137.094L187.819 136.701C187.892 136.85 187.998 136.998 188.137 137.143C188.276 137.293 188.464 137.415 188.699 137.511C188.938 137.611 189.238 137.661 189.599 137.661C190.109 137.661 190.532 137.536 190.867 137.288C191.201 137.042 191.369 136.638 191.369 136.075V134.628H191.279C191.186 134.813 191.051 135.004 190.872 135.2C190.696 135.395 190.462 135.559 190.171 135.692C189.882 135.824 189.519 135.891 189.082 135.891C188.495 135.891 187.963 135.753 187.486 135.478C187.012 135.2 186.634 134.785 186.352 134.235C186.074 133.682 185.935 132.989 185.935 132.157C185.935 131.318 186.074 130.611 186.352 130.034C186.634 129.454 187.014 129.015 187.491 128.717C187.968 128.415 188.5 128.264 189.087 128.264C189.534 128.264 189.902 128.34 190.19 128.493C190.482 128.642 190.714 128.823 190.886 129.035C191.059 129.244 191.19 129.441 191.279 129.626H191.379V128.364H193.153V136.124C193.153 136.777 192.998 137.317 192.686 137.745C192.375 138.173 191.949 138.492 191.408 138.705C190.868 138.917 190.255 139.023 189.569 139.023ZM189.584 134.479C189.965 134.479 190.29 134.386 190.558 134.2C190.827 134.015 191.031 133.748 191.17 133.4C191.309 133.052 191.379 132.634 191.379 132.147C191.379 131.666 191.309 131.246 191.17 130.884C191.034 130.523 190.832 130.243 190.563 130.044C190.298 129.842 189.972 129.741 189.584 129.741C189.183 129.741 188.848 129.845 188.58 130.054C188.311 130.263 188.109 130.549 187.973 130.914C187.837 131.275 187.769 131.686 187.769 132.147C187.769 132.614 187.837 133.024 187.973 133.375C188.112 133.723 188.316 133.995 188.585 134.19C188.856 134.383 189.189 134.479 189.584 134.479Z" fill="white"/>
<path d="M207.5 128.5L212.5 133.5L217.5 128.5H207.5Z" fill="white"/>
<path d="M517.5 112V111.5H517H383C379.41 111.5 376.5 114.41 376.5 118V142C376.5 145.59 379.41 148.5 383 148.5H517H517.5V148V112Z" fill="#4B61DD"/>
<path d="M517.5 112V111.5H517H383C379.41 111.5 376.5 114.41 376.5 118V142C376.5 145.59 379.41 148.5 383 148.5H517H517.5V148V112Z" stroke="#4B61DD"/>
<path d="M403.146 128.254H401.287C401.234 127.949 401.136 127.679 400.994 127.443C400.851 127.205 400.674 127.002 400.462 126.837C400.249 126.671 400.007 126.547 399.736 126.464C399.467 126.378 399.177 126.335 398.866 126.335C398.312 126.335 397.822 126.474 397.394 126.752C396.967 127.027 396.632 127.432 396.39 127.965C396.148 128.496 396.027 129.143 396.027 129.909C396.027 130.688 396.148 131.344 396.39 131.878C396.635 132.408 396.97 132.809 397.394 133.081C397.822 133.349 398.311 133.484 398.861 133.484C399.166 133.484 399.451 133.444 399.716 133.364C399.984 133.281 400.225 133.161 400.437 133.001C400.652 132.842 400.833 132.647 400.979 132.415C401.128 132.183 401.23 131.918 401.287 131.619L403.146 131.629C403.077 132.113 402.926 132.567 402.694 132.991C402.465 133.416 402.165 133.79 401.794 134.115C401.423 134.437 400.989 134.688 400.491 134.871C399.994 135.05 399.442 135.139 398.836 135.139C397.941 135.139 397.142 134.932 396.44 134.518C395.737 134.103 395.183 133.505 394.779 132.723C394.375 131.941 394.172 131.003 394.172 129.909C394.172 128.812 394.376 127.874 394.784 127.095C395.192 126.313 395.747 125.715 396.449 125.3C397.152 124.886 397.948 124.679 398.836 124.679C399.403 124.679 399.93 124.759 400.417 124.918C400.904 125.077 401.338 125.31 401.719 125.619C402.101 125.924 402.414 126.298 402.659 126.742C402.908 127.183 403.07 127.687 403.146 128.254ZM404.756 135V127.364H406.501V128.636H406.58C406.72 128.196 406.958 127.856 407.296 127.617C407.638 127.375 408.027 127.254 408.465 127.254C408.564 127.254 408.675 127.259 408.798 127.269C408.924 127.276 409.028 127.287 409.111 127.304V128.96C409.035 128.933 408.914 128.91 408.748 128.89C408.586 128.867 408.428 128.855 408.276 128.855C407.948 128.855 407.653 128.926 407.391 129.069C407.132 129.208 406.928 129.402 406.779 129.651C406.63 129.899 406.555 130.186 406.555 130.511V135H404.756ZM413.373 135.149C412.607 135.149 411.946 134.99 411.389 134.672C410.836 134.35 410.41 133.896 410.111 133.31C409.813 132.72 409.664 132.025 409.664 131.227C409.664 130.441 409.813 129.752 410.111 129.158C410.413 128.562 410.834 128.098 411.374 127.766C411.914 127.432 412.549 127.264 413.278 127.264C413.749 127.264 414.193 127.34 414.611 127.493C415.032 127.642 415.403 127.874 415.724 128.189C416.049 128.504 416.304 128.905 416.49 129.392C416.676 129.876 416.768 130.453 416.768 131.122V131.674H410.509V130.461H415.043C415.04 130.116 414.965 129.81 414.82 129.541C414.674 129.269 414.47 129.056 414.208 128.9C413.949 128.744 413.648 128.666 413.303 128.666C412.935 128.666 412.612 128.756 412.334 128.935C412.055 129.11 411.838 129.342 411.682 129.631C411.53 129.916 411.452 130.229 411.449 130.57V131.629C411.449 132.073 411.53 132.455 411.692 132.773C411.855 133.088 412.082 133.33 412.373 133.499C412.665 133.664 413.007 133.747 413.398 133.747C413.659 133.747 413.896 133.711 414.109 133.638C414.321 133.562 414.505 133.451 414.66 133.305C414.816 133.159 414.934 132.978 415.013 132.763L416.694 132.952C416.588 133.396 416.386 133.784 416.087 134.115C415.792 134.443 415.414 134.698 414.954 134.881C414.493 135.06 413.966 135.149 413.373 135.149ZM420.488 135.154C420.004 135.154 419.569 135.068 419.181 134.896C418.796 134.72 418.491 134.461 418.266 134.12C418.044 133.779 417.933 133.358 417.933 132.857C417.933 132.426 418.013 132.07 418.172 131.788C418.331 131.507 418.548 131.281 418.823 131.112C419.098 130.943 419.408 130.816 419.753 130.729C420.101 130.64 420.46 130.575 420.831 130.536C421.279 130.489 421.642 130.448 421.92 130.411C422.199 130.371 422.401 130.312 422.527 130.232C422.656 130.149 422.721 130.022 422.721 129.849V129.82C422.721 129.445 422.61 129.155 422.388 128.95C422.165 128.744 421.846 128.641 421.428 128.641C420.987 128.641 420.638 128.737 420.379 128.93C420.124 129.122 419.951 129.349 419.862 129.611L418.182 129.372C418.314 128.908 418.533 128.52 418.838 128.209C419.143 127.894 419.516 127.659 419.956 127.503C420.397 127.344 420.884 127.264 421.418 127.264C421.786 127.264 422.152 127.307 422.517 127.393C422.881 127.48 423.214 127.622 423.516 127.821C423.818 128.017 424.06 128.283 424.242 128.621C424.428 128.96 424.52 129.382 424.52 129.889V135H422.79V133.951H422.731C422.621 134.163 422.467 134.362 422.268 134.548C422.073 134.73 421.826 134.877 421.527 134.99C421.232 135.099 420.886 135.154 420.488 135.154ZM420.956 133.832C421.317 133.832 421.63 133.76 421.895 133.618C422.16 133.472 422.364 133.28 422.507 133.041C422.653 132.803 422.726 132.542 422.726 132.261V131.361C422.669 131.407 422.573 131.45 422.437 131.49C422.305 131.53 422.156 131.565 421.99 131.594C421.824 131.624 421.66 131.651 421.498 131.674C421.335 131.697 421.194 131.717 421.075 131.734C420.807 131.77 420.566 131.83 420.354 131.913C420.142 131.996 419.975 132.112 419.852 132.261C419.729 132.406 419.668 132.595 419.668 132.827C419.668 133.159 419.789 133.409 420.031 133.578C420.273 133.747 420.581 133.832 420.956 133.832ZM430.143 127.364V128.756H425.753V127.364H430.143ZM426.837 125.534H428.637V132.703C428.637 132.945 428.673 133.131 428.746 133.26C428.822 133.386 428.922 133.472 429.044 133.518C429.167 133.565 429.303 133.588 429.452 133.588C429.565 133.588 429.668 133.58 429.76 133.563C429.857 133.547 429.929 133.532 429.979 133.518L430.282 134.925C430.186 134.959 430.049 134.995 429.87 135.035C429.694 135.075 429.479 135.098 429.223 135.104C428.773 135.118 428.367 135.05 428.005 134.901C427.644 134.748 427.357 134.513 427.145 134.195C426.937 133.876 426.834 133.479 426.837 133.001V125.534ZM434.947 135.149C434.181 135.149 433.52 134.99 432.963 134.672C432.41 134.35 431.984 133.896 431.686 133.31C431.387 132.72 431.238 132.025 431.238 131.227C431.238 130.441 431.387 129.752 431.686 129.158C431.987 128.562 432.408 128.098 432.948 127.766C433.489 127.432 434.123 127.264 434.853 127.264C435.323 127.264 435.767 127.34 436.185 127.493C436.606 127.642 436.977 127.874 437.299 128.189C437.623 128.504 437.879 128.905 438.064 129.392C438.25 129.876 438.343 130.453 438.343 131.122V131.674H432.083V130.461H436.617C436.614 130.116 436.54 129.81 436.394 129.541C436.248 129.269 436.044 129.056 435.782 128.9C435.524 128.744 435.222 128.666 434.877 128.666C434.509 128.666 434.186 128.756 433.908 128.935C433.63 129.11 433.412 129.342 433.257 129.631C433.104 129.916 433.026 130.229 433.023 130.57V131.629C433.023 132.073 433.104 132.455 433.267 132.773C433.429 133.088 433.656 133.33 433.948 133.499C434.239 133.664 434.581 133.747 434.972 133.747C435.234 133.747 435.471 133.711 435.683 133.638C435.895 133.562 436.079 133.451 436.235 133.305C436.39 133.159 436.508 132.978 436.588 132.763L438.268 132.952C438.162 133.396 437.96 133.784 437.661 134.115C437.367 134.443 436.989 134.698 436.528 134.881C436.067 135.06 435.54 135.149 434.947 135.149ZM445.262 124.818V135H443.417V124.818H445.262ZM450.709 135H447.259V124.818H450.779C451.79 124.818 452.658 125.022 453.384 125.43C454.113 125.834 454.673 126.416 455.065 127.175C455.456 127.934 455.651 128.842 455.651 129.899C455.651 130.96 455.454 131.871 455.06 132.634C454.668 133.396 454.103 133.981 453.364 134.388C452.628 134.796 451.744 135 450.709 135ZM449.104 133.404H450.62C451.329 133.404 451.921 133.275 452.395 133.016C452.869 132.754 453.225 132.365 453.464 131.848C453.702 131.328 453.822 130.678 453.822 129.899C453.822 129.12 453.702 128.474 453.464 127.96C453.225 127.443 452.872 127.057 452.405 126.802C451.941 126.543 451.364 126.414 450.675 126.414H449.104V133.404ZM460.876 135V124.818H462.676V128.626H462.751C462.843 128.441 462.974 128.244 463.143 128.035C463.312 127.823 463.541 127.642 463.829 127.493C464.118 127.34 464.486 127.264 464.933 127.264C465.523 127.264 466.055 127.415 466.529 127.717C467.006 128.015 467.384 128.457 467.663 129.044C467.944 129.627 468.085 130.343 468.085 131.192C468.085 132.03 467.948 132.743 467.672 133.33C467.397 133.916 467.023 134.364 466.549 134.672C466.075 134.98 465.538 135.134 464.938 135.134C464.501 135.134 464.138 135.061 463.849 134.915C463.561 134.77 463.329 134.594 463.153 134.388C462.981 134.18 462.847 133.982 462.751 133.797H462.646V135H460.876ZM462.641 131.182C462.641 131.676 462.711 132.108 462.85 132.479C462.993 132.851 463.196 133.141 463.462 133.349C463.73 133.555 464.055 133.658 464.436 133.658C464.834 133.658 465.167 133.552 465.435 133.339C465.704 133.124 465.906 132.831 466.042 132.46C466.181 132.085 466.251 131.659 466.251 131.182C466.251 130.708 466.183 130.287 466.047 129.919C465.911 129.551 465.709 129.263 465.44 129.054C465.172 128.845 464.837 128.741 464.436 128.741C464.052 128.741 463.725 128.842 463.457 129.044C463.188 129.246 462.984 129.53 462.845 129.894C462.709 130.259 462.641 130.688 462.641 131.182ZM469.615 135V127.364H471.415V135H469.615ZM470.52 126.28C470.235 126.28 469.99 126.185 469.784 125.996C469.579 125.804 469.476 125.574 469.476 125.305C469.476 125.034 469.579 124.803 469.784 124.614C469.99 124.422 470.235 124.326 470.52 124.326C470.808 124.326 471.054 124.422 471.256 124.614C471.461 124.803 471.564 125.034 471.564 125.305C471.564 125.574 471.461 125.804 471.256 125.996C471.054 126.185 470.808 126.28 470.52 126.28ZM475.065 124.818V135H473.266V124.818H475.065ZM478.716 124.818V135H476.916V124.818H478.716ZM480.566 135V127.364H482.366V135H480.566ZM481.471 126.28C481.186 126.28 480.941 126.185 480.735 125.996C480.53 125.804 480.427 125.574 480.427 125.305C480.427 125.034 480.53 124.803 480.735 124.614C480.941 124.422 481.186 124.326 481.471 124.326C481.759 124.326 482.005 124.422 482.207 124.614C482.412 124.803 482.515 125.034 482.515 125.305C482.515 125.574 482.412 125.804 482.207 125.996C482.005 126.185 481.759 126.28 481.471 126.28ZM486.016 130.526V135H484.217V127.364H485.937V128.661H486.026C486.202 128.234 486.482 127.894 486.867 127.642C487.254 127.39 487.733 127.264 488.303 127.264C488.83 127.264 489.289 127.377 489.68 127.602C490.075 127.828 490.38 128.154 490.595 128.582C490.814 129.009 490.922 129.528 490.918 130.138V135H489.119V130.416C489.119 129.906 488.986 129.506 488.721 129.218C488.459 128.93 488.096 128.786 487.632 128.786C487.317 128.786 487.037 128.855 486.792 128.994C486.55 129.13 486.359 129.327 486.22 129.586C486.084 129.844 486.016 130.158 486.016 130.526ZM496.069 138.023C495.423 138.023 494.868 137.935 494.403 137.759C493.939 137.587 493.567 137.355 493.285 137.063C493.003 136.772 492.808 136.448 492.698 136.094L494.319 135.701C494.392 135.85 494.498 135.998 494.637 136.143C494.776 136.293 494.964 136.415 495.199 136.511C495.438 136.611 495.738 136.661 496.099 136.661C496.609 136.661 497.032 136.536 497.367 136.288C497.701 136.042 497.869 135.638 497.869 135.075V133.628H497.779C497.686 133.813 497.551 134.004 497.372 134.2C497.196 134.395 496.962 134.559 496.671 134.692C496.382 134.824 496.019 134.891 495.582 134.891C494.995 134.891 494.463 134.753 493.986 134.478C493.512 134.2 493.134 133.785 492.852 133.235C492.574 132.682 492.435 131.989 492.435 131.157C492.435 130.318 492.574 129.611 492.852 129.034C493.134 128.454 493.514 128.015 493.991 127.717C494.468 127.415 495 127.264 495.587 127.264C496.034 127.264 496.402 127.34 496.69 127.493C496.982 127.642 497.214 127.823 497.386 128.035C497.559 128.244 497.69 128.441 497.779 128.626H497.879V127.364H499.653V135.124C499.653 135.777 499.498 136.317 499.186 136.745C498.875 137.173 498.449 137.492 497.908 137.705C497.368 137.917 496.755 138.023 496.069 138.023ZM496.084 133.479C496.465 133.479 496.79 133.386 497.058 133.2C497.327 133.015 497.531 132.748 497.67 132.4C497.809 132.052 497.879 131.634 497.879 131.147C497.879 130.666 497.809 130.246 497.67 129.884C497.534 129.523 497.332 129.243 497.063 129.044C496.798 128.842 496.472 128.741 496.084 128.741C495.683 128.741 495.348 128.845 495.08 129.054C494.811 129.263 494.609 129.549 494.473 129.914C494.337 130.275 494.269 130.686 494.269 131.147C494.269 131.614 494.337 132.024 494.473 132.375C494.612 132.723 494.816 132.995 495.085 133.19C495.356 133.383 495.689 133.479 496.084 133.479Z" fill="white"/>
<g filter="url(#filter0_i_3665_99830)">
<path d="M517 112H547C550.314 112 553 114.686 553 118V142C553 145.314 550.314 148 547 148H517V112Z" fill="#4B61DD"/>
<path d="M517 111.5H516.5V112V148V148.5H517H547C550.59 148.5 553.5 145.59 553.5 142V118C553.5 114.41 550.59 111.5 547 111.5H517Z" stroke="#4B61DD"/>
<path d="M530 127.5L535 132.5L540 127.5H530Z" fill="white"/>
</g>
<defs>
<filter id="filter0_i_3665_99830" x="516" y="111" width="38" height="38" filterUnits="userSpaceOnUse" color-interpolation-filters="sRGB">
<feFlood flood-opacity="0" result="BackgroundImageFix"/>
<feBlend mode="normal" in="SourceGraphic" in2="BackgroundImageFix" result="shape"/>
<feColorMatrix in="SourceAlpha" type="matrix" values="0 0 0 0 0 0 0 0 0 0 0 0 0 0 0 0 0 0 127 0" result="hardAlpha"/>
<feOffset dx="1"/>
<feComposite in2="hardAlpha" operator="arithmetic" k2="-1" k3="1"/>
<feColorMatrix type="matrix" values="0 0 0 0 0.192157 0 0 0 0 0.290196 0 0 0 0 0.847059 0 0 0 1 0"/>
<feBlend mode="normal" in2="shape" result="effect1_innerShadow_3665_99830"/>
</filter>
<clipPath id="clip0_3665_99830">
<rect width="286" height="286" rx="8" fill="white"/>
</clipPath>
<clipPath id="clip1_3665_99830">
<rect x="310" width="286" height="286" rx="8" fill="white"/>
</clipPath>
</defs>
</svg>
